{
    "asset" : {
        "generator" : "Khronos glTF Blender I/O v1.6.16",
        "version" : "2.0"
    },
    "extensionsUsed" : [
        "KHR_materials_transmission"
    ],
    "scene" : 0,
    "scenes" : [
        {
            "name" : "Scene",
            "nodes" : [
                0,
                2,
                3,
                4,
                5,
                6,
                7,
                8,
                9,
                10,
                11
            ]
        }
    ],
    "nodes" : [
        {
            "name" : "Light",
            "rotation" : [
                0.16907575726509094,
                0.7558803558349609,
                -0.27217137813568115,
                0.570947527885437
            ],
            "translation" : [
                4.076245307922363,
                5.903861999511719,
                -1.0054539442062378
            ]
        },
        {
            "name" : "Camera",
            "rotation" : [
                0.483536034822464,
                0.33687159419059753,
                -0.20870360732078552,
                0.7804827094078064
            ],
            "translation" : [
                7.358891487121582,
                4.958309173583984,
                6.925790786743164
            ]
        },
        {
            "children" : [
                1
            ],
            "mesh" : 0,
            "name" : "Cylinder",
            "translation" : [
                0,
                1,
                0
            ]
        },
        {
            "mesh" : 1,
            "name" : "Screen",
            "translation" : [
                0,
                1,
                0
            ]
        },
        {
            "mesh" : 2,
            "name" : "Bottom Speaker",
            "translation" : [
                0,
                1,
                0
            ]
        },
        {
            "name" : "Area",
            "rotation" : [
                0,
                0,
                -0.42022496461868286,
                0.9074199795722961
            ],
            "translation" : [
                2.8625612258911133,
                3.943804979324341,
                0
            ]
        },
        {
            "name" : "Area.001",
            "rotation" : [
                0.3112771511077881,
                0,
                0,
                0.9503192901611328
            ],
            "translation" : [
                0,
                5.6962738037109375,
                3.889151096343994
            ]
        },
        {
            "mesh" : 3,
            "name" : "Top Speaker",
            "translation" : [
                0,
                1,
                0
            ]
        },
        {
            "mesh" : 4,
            "name" : "Lightbar 1",
            "translation" : [
                0,
                1,
                0
            ]
        },
        {
            "mesh" : 5,
            "name" : "Lightbar 2",
            "translation" : [
                0,
                1,
                0
            ]
        },
        {
            "mesh" : 6,
            "name" : "Lightbar 3",
            "translation" : [
                0,
                1,
                0
            ]
        },
        {
            "mesh" : 7,
            "name" : "Lightbar 4",
            "translation" : [
                0,
                1,
                0
            ]
        }
    ],
    "materials" : [
        {
            "doubleSided" : true,
            "name" : "Metal scratched",
            "pbrMetallicRoughness" : {}
        },
        {
            "doubleSided" : true,
            "emissiveFactor" : [
                1,
                1,
                1
            ],
            "emissiveTexture" : {
                "index" : 0
            },
            "name" : "Screen low pitch procedural",
            "pbrMetallicRoughness" : {}
        },
        {
            "doubleSided" : true,
            "name" : "Speaker",
            "normalTexture" : {
                "index" : 1
            },
            "pbrMetallicRoughness" : {
                "baseColorTexture" : {
                    "index" : 2
                },
                "metallicRoughnessTexture" : {
                    "index" : 3
                }
            }
        },
        {
            "alphaMode" : "BLEND",
            "doubleSided" : true,
            "emissiveFactor" : [
                1,
                1,
                1
            ],
            "extensions" : {
                "KHR_materials_transmission" : {
                    "transmissionFactor" : 1
                }
            },
            "name" : "Bulb Emmision Light",
            "pbrMetallicRoughness" : {
                "baseColorFactor" : [
                    0.5088813900947571,
                    0.3813260495662689,
                    0.15592648088932037,
                    1
                ],
                "roughnessFactor" : 0
            }
        }
    ],
    "meshes" : [
        {
            "name" : "Cylinder.002",
            "primitives" : [
                {
                    "attributes" : {
                        "POSITION" : 0,
                        "NORMAL" : 1,
                        "TEXCOORD_0" : 2,
                        "TEXCOORD_1" : 3
                    },
                    "indices" : 4,
                    "material" : 0
                }
            ]
        },
        {
            "name" : "Cylinder.001",
            "primitives" : [
                {
                    "attributes" : {
                        "POSITION" : 5,
                        "NORMAL" : 6,
                        "TEXCOORD_0" : 7,
                        "TEXCOORD_1" : 8
                    },
                    "indices" : 9,
                    "material" : 1
                }
            ]
        },
        {
            "name" : "Cylinder.003",
            "primitives" : [
                {
                    "attributes" : {
                        "POSITION" : 10,
                        "NORMAL" : 11,
                        "TEXCOORD_0" : 12,
                        "TEXCOORD_1" : 13
                    },
                    "indices" : 14,
                    "material" : 2
                }
            ]
        },
        {
            "name" : "Cylinder.004",
            "primitives" : [
                {
                    "attributes" : {
                        "POSITION" : 15,
                        "NORMAL" : 16,
                        "TEXCOORD_0" : 17,
                        "TEXCOORD_1" : 18
                    },
                    "indices" : 19,
                    "material" : 2
                }
            ]
        },
        {
            "name" : "Cylinder.005",
            "primitives" : [
                {
                    "attributes" : {
                        "POSITION" : 20,
                        "NORMAL" : 21,
                        "TEXCOORD_0" : 22,
                        "TEXCOORD_1" : 23
                    },
                    "indices" : 24,
                    "material" : 3
                }
            ]
        },
        {
            "name" : "Cylinder.006",
            "primitives" : [
                {
                    "attributes" : {
                        "POSITION" : 25,
                        "NORMAL" : 26,
                        "TEXCOORD_0" : 27,
                        "TEXCOORD_1" : 28
                    },
                    "indices" : 29,
                    "material" : 3
                }
            ]
        },
        {
            "name" : "Cylinder.007",
            "primitives" : [
                {
                    "attributes" : {
                        "POSITION" : 30,
                        "NORMAL" : 31,
                        "TEXCOORD_0" : 32,
                        "TEXCOORD_1" : 33
                    },
                    "indices" : 34,
                    "material" : 3
                }
            ]
        },
        {
            "name" : "Cylinder.008",
            "primitives" : [
                {
                    "attributes" : {
                        "POSITION" : 35,
                        "NORMAL" : 36,
                        "TEXCOORD_0" : 37,
                        "TEXCOORD_1" : 38
                    },
                    "indices" : 39,
                    "material" : 3
                }
            ]
        }
    ],
    "textures" : [
        {
            "sampler" : 0,
            "source" : 0
        },
        {
            "sampler" : 0,
            "source" : 1
        },
        {
            "sampler" : 0,
            "source" : 2
        },
        {
            "sampler" : 0,
            "source" : 3
        }
    ],
    "images" : [
        {
            "bufferView" : 10,
            "mimeType" : "image/jpeg",
            "name" : "stadium_and_god_rays"
        },
        {
            "bufferView" : 16,
            "mimeType" : "image/jpeg",
            "name" : "speaker_Normal"
        },
        {
            "bufferView" : 17,
            "mimeType" : "image/jpeg",
            "name" : "speaker_Base Color"
        },
        {
            "bufferView" : 18,
            "mimeType" : "image/png",
            "name" : "speaker_Metallic-speaker_Roughness"
        }
    ],
    "accessors" : [
        {
            "bufferView" : 0,
            "componentType" : 5126,
            "count" : 9690,
            "max" : [
                0.26946720480918884,
                1,
                0.27000001072883606
            ],
            "min" : [
                -0.26946720480918884,
                -1,
                -0.27000001072883606
            ],
            "type" : "VEC3"
        },
        {
            "bufferView" : 1,
            "componentType" : 5126,
            "count" : 9690,
            "type" : "VEC3"
        },
        {
            "bufferView" : 2,
            "componentType" : 5126,
            "count" : 9690,
            "type" : "VEC2"
        },
        {
            "bufferView" : 3,
            "componentType" : 5126,
            "count" : 9690,
            "type" : "VEC2"
        },
        {
            "bufferView" : 4,
            "componentType" : 5123,
            "count" : 16470,
            "type" : "SCALAR"
        },
        {
            "bufferView" : 5,
            "componentType" : 5126,
            "count" : 358,
            "max" : [
                0.2395264208316803,
                0.6842105388641357,
                0.23999999463558197
            ],
            "min" : [
                -0.2395264208316803,
                0.4736841320991516,
                -0.23999999463558197
            ],
            "type" : "VEC3"
        },
        {
            "bufferView" : 6,
            "componentType" : 5126,
            "count" : 358,
            "type" : "VEC3"
        },
        {
            "bufferView" : 7,
            "componentType" : 5126,
            "count" : 358,
            "type" : "VEC2"
        },
        {
            "bufferView" : 8,
            "componentType" : 5126,
            "count" : 358,
            "type" : "VEC2"
        },
        {
            "bufferView" : 9,
            "componentType" : 5123,
            "count" : 600,
            "type" : "SCALAR"
        },
        {
            "bufferView" : 11,
            "componentType" : 5126,
            "count" : 4557,
            "max" : [
                0.25948694348335266,
                0.21052634716033936,
                0.25999999046325684
            ],
            "min" : [
                -0.25948694348335266,
                0.15789468586444855,
                -0.25999999046325684
            ],
            "type" : "VEC3"
        },
        {
            "bufferView" : 12,
            "componentType" : 5126,
            "count" : 4557,
            "type" : "VEC3"
        },
        {
            "bufferView" : 13,
            "componentType" : 5126,
            "count" : 4557,
            "type" : "VEC2"
        },
        {
            "bufferView" : 14,
            "componentType" : 5126,
            "count" : 4557,
            "type" : "VEC2"
        },
        {
            "bufferView" : 15,
            "componentType" : 5123,
            "count" : 6900,
            "type" : "SCALAR"
        },
        {
            "bufferView" : 19,
            "componentType" : 5126,
            "count" : 3342,
            "max" : [
                0.25948694348335266,
                0.31578952074050903,
                0.25999999046325684
            ],
            "min" : [
                -0.25948694348335266,
                0.26315784454345703,
                -0.25999999046325684
            ],
            "type" : "VEC3"
        },
        {
            "bufferView" : 20,
            "componentType" : 5126,
            "count" : 3342,
            "type" : "VEC3"
        },
        {
            "bufferView" : 21,
            "componentType" : 5126,
            "count" : 3342,
            "type" : "VEC2"
        },
        {
            "bufferView" : 22,
            "componentType" : 5126,
            "count" : 3342,
            "type" : "VEC2"
        },
        {
            "bufferView" : 23,
            "componentType" : 5123,
            "count" : 5100,
            "type" : "SCALAR"
        },
        {
            "bufferView" : 24,
            "componentType" : 5126,
            "count" : 2929,
            "max" : [
                0.26946720480918884,
                0.052631527185440063,
                0.048467423766851425
            ],
            "min" : [
                0.2377641350030899,
                -1,
                -0.0805835872888565
            ],
            "type" : "VEC3"
        },
        {
            "bufferView" : 25,
            "componentType" : 5126,
            "count" : 2929,
            "type" : "VEC3"
        },
        {
            "bufferView" : 26,
            "componentType" : 5126,
            "count" : 2929,
            "type" : "VEC2"
        },
        {
            "bufferView" : 27,
            "componentType" : 5126,
            "count" : 2929,
            "type" : "VEC2"
        },
        {
            "bufferView" : 28,
            "componentType" : 5123,
            "count" : 4578,
            "type" : "SCALAR"
        },
        {
            "bufferView" : 29,
            "componentType" : 5126,
            "count" : 2080,
            "max" : [
                0.06464386731386185,
                0.052631527185440063,
                0.27000001072883606
            ],
            "min" : [
                -0.06464385241270065,
                -1,
                0.24214579164981842
            ],
            "type" : "VEC3"
        },
        {
            "bufferView" : 30,
            "componentType" : 5126,
            "count" : 2080,
            "type" : "VEC3"
        },
        {
            "bufferView" : 31,
            "componentType" : 5126,
            "count" : 2080,
            "type" : "VEC2"
        },
        {
            "bufferView" : 32,
            "componentType" : 5126,
            "count" : 2080,
            "type" : "VEC2"
        },
        {
            "bufferView" : 33,
            "componentType" : 5123,
            "count" : 3204,
            "type" : "SCALAR"
        },
        {
            "bufferView" : 34,
            "componentType" : 5126,
            "count" : 2496,
            "max" : [
                -0.2377641201019287,
                0.052631527185440063,
                0.04846743866801262
            ],
            "min" : [
                -0.26946720480918884,
                -1,
                -0.0805836170911789
            ],
            "type" : "VEC3"
        },
        {
            "bufferView" : 35,
            "componentType" : 5126,
            "count" : 2496,
            "type" : "VEC3"
        },
        {
            "bufferView" : 36,
            "componentType" : 5126,
            "count" : 2496,
            "type" : "VEC2"
        },
        {
            "bufferView" : 37,
            "componentType" : 5126,
            "count" : 2496,
            "type" : "VEC2"
        },
        {
            "bufferView" : 38,
            "componentType" : 5123,
            "count" : 3894,
            "type" : "SCALAR"
        },
        {
            "bufferView" : 39,
            "componentType" : 5126,
            "count" : 2520,
            "max" : [
                0.06464386731386185,
                0.052631624042987823,
                -0.24214579164981842
            ],
            "min" : [
                -0.06464385241270065,
                -1,
                -0.27000001072883606
            ],
            "type" : "VEC3"
        },
        {
            "bufferView" : 40,
            "componentType" : 5126,
            "count" : 2520,
            "type" : "VEC3"
        },
        {
            "bufferView" : 41,
            "componentType" : 5126,
            "count" : 2520,
            "type" : "VEC2"
        },
        {
            "bufferView" : 42,
            "componentType" : 5126,
            "count" : 2520,
            "type" : "VEC2"
        },
        {
            "bufferView" : 43,
            "componentType" : 5123,
            "count" : 3894,
            "type" : "SCALAR"
        }
    ],
    "bufferViews" : [
        {
            "buffer" : 0,
            "byteLength" : 116280,
            "byteOffset" : 0
        },
        {
            "buffer" : 0,
            "byteLength" : 116280,
            "byteOffset" : 116280
        },
        {
            "buffer" : 0,
            "byteLength" : 77520,
            "byteOffset" : 232560
        },
        {
            "buffer" : 0,
            "byteLength" : 77520,
            "byteOffset" : 310080
        },
        {
            "buffer" : 0,
            "byteLength" : 32940,
            "byteOffset" : 387600
        },
        {
            "buffer" : 0,
            "byteLength" : 4296,
            "byteOffset" : 420540
        },
        {
            "buffer" : 0,
            "byteLength" : 4296,
            "byteOffset" : 424836
        },
        {
            "buffer" : 0,
            "byteLength" : 2864,
            "byteOffset" : 429132
        },
        {
            "buffer" : 0,
            "byteLength" : 2864,
            "byteOffset" : 431996
        },
        {
            "buffer" : 0,
            "byteLength" : 1200,
            "byteOffset" : 434860
        },
        {
            "buffer" : 0,
            "byteLength" : 162338,
            "byteOffset" : 436060
        },
        {
            "buffer" : 0,
            "byteLength" : 54684,
            "byteOffset" : 598400
        },
        {
            "buffer" : 0,
            "byteLength" : 54684,
            "byteOffset" : 653084
        },
        {
            "buffer" : 0,
            "byteLength" : 36456,
            "byteOffset" : 707768
        },
        {
            "buffer" : 0,
            "byteLength" : 36456,
            "byteOffset" : 744224
        },
        {
            "buffer" : 0,
            "byteLength" : 13800,
            "byteOffset" : 780680
        },
        {
            "buffer" : 0,
            "byteLength" : 450935,
            "byteOffset" : 794480
        },
        {
            "buffer" : 0,
            "byteLength" : 49736,
            "byteOffset" : 1245416
        },
        {
            "buffer" : 0,
            "byteLength" : 474765,
            "byteOffset" : 1295152
        },
        {
            "buffer" : 0,
            "byteLength" : 40104,
            "byteOffset" : 1769920
        },
        {
            "buffer" : 0,
            "byteLength" : 40104,
            "byteOffset" : 1810024
        },
        {
            "buffer" : 0,
            "byteLength" : 26736,
            "byteOffset" : 1850128
        },
        {
            "buffer" : 0,
            "byteLength" : 26736,
            "byteOffset" : 1876864
        },
        {
            "buffer" : 0,
            "byteLength" : 10200,
            "byteOffset" : 1903600
        },
        {
            "buffer" : 0,
            "byteLength" : 35148,
            "byteOffset" : 1913800
        },
        {
            "buffer" : 0,
            "byteLength" : 35148,
            "byteOffset" : 1948948
        },
        {
            "buffer" : 0,
            "byteLength" : 23432,
            "byteOffset" : 1984096
        },
        {
            "buffer" : 0,
            "byteLength" : 23432,
            "byteOffset" : 2007528
        },
        {
            "buffer" : 0,
            "byteLength" : 9156,
            "byteOffset" : 2030960
        },
        {
            "buffer" : 0,
            "byteLength" : 24960,
            "byteOffset" : 2040116
        },
        {
            "buffer" : 0,
            "byteLength" : 24960,
            "byteOffset" : 2065076
        },
        {
            "buffer" : 0,
            "byteLength" : 16640,
            "byteOffset" : 2090036
        },
        {
            "buffer" : 0,
            "byteLength" : 16640,
            "byteOffset" : 2106676
        },
        {
            "buffer" : 0,
            "byteLength" : 6408,
            "byteOffset" : 2123316
        },
        {
            "buffer" : 0,
            "byteLength" : 29952,
            "byteOffset" : 2129724
        },
        {
            "buffer" : 0,
            "byteLength" : 29952,
            "byteOffset" : 2159676
        },
        {
            "buffer" : 0,
            "byteLength" : 19968,
            "byteOffset" : 2189628
        },
        {
            "buffer" : 0,
            "byteLength" : 19968,
            "byteOffset" : 2209596
        },
        {
            "buffer" : 0,
            "byteLength" : 7788,
            "byteOffset" : 2229564
        },
        {
            "buffer" : 0,
            "byteLength" : 30240,
            "byteOffset" : 2237352
        },
        {
            "buffer" : 0,
            "byteLength" : 30240,
            "byteOffset" : 2267592
        },
        {
            "buffer" : 0,
            "byteLength" : 20160,
            "byteOffset" : 2297832
        },
        {
            "buffer" : 0,
            "byteLength" : 20160,
            "byteOffset" : 2317992
        },
        {
            "buffer" : 0,
            "byteLength" : 7788,
            "byteOffset" : 2338152
        }
    ],
    "samplers" : [
        {
            "magFilter" : 9729,
            "minFilter" : 9987
        }
    ],
    "buffers" : [
        {
            "byteLength" : 2345940,
            "uri" : "data:application/octet-stream;base64,"
        }
    ]
}
